<svg width="206" height="198" viewBox="0 0 206 198" fill="none" xmlns="http://www.w3.org/2000/svg">
<circle opacity="0.5" cx="106" cy="97" r="80" fill="#C4EEC4"/>
<circle cx="106" cy="97" r="57" fill="#C4EEC4"/>
<circle cx="106" cy="97" r="34" fill="#35B233"/>
<path d="M106 82.833C102.288 82.833 99.2708 85.8505 99.2708 89.5622C99.2708 93.203 102.118 96.1497 105.83 96.2772C105.943 96.263 106.057 96.263 106.142 96.2772C106.17 96.2772 106.184 96.2772 106.212 96.2772C106.227 96.2772 106.227 96.2772 106.241 96.2772C109.867 96.1497 112.715 93.203 112.729 89.5622C112.729 85.8505 109.712 82.833 106 82.833Z" fill="white"/>
<path d="M113.197 100.046C109.244 97.4106 102.798 97.4106 98.8174 100.046C97.0183 101.25 96.0266 102.879 96.0266 104.621C96.0266 106.364 97.0183 107.979 98.8033 109.169C100.787 110.501 103.393 111.166 106 111.166C108.607 111.166 111.213 110.501 113.197 109.169C114.982 107.965 115.973 106.35 115.973 104.593C115.959 102.851 114.982 101.236 113.197 100.046Z" fill="white"/>
<circle cx="156" cy="191" r="6" fill="#35B233"/>
<circle cx="200" cy="136" r="4" fill="#35B233"/>
<circle cx="14" cy="164" r="4" fill="#35B233"/>
<circle cx="64" cy="194" r="4" fill="#35B233"/>
<circle cx="4" cy="84" r="4" fill="#35B233"/>
<circle cx="56" cy="6" r="6" fill="#35B233"/>
<circle cx="154" cy="4" r="4" fill="#35B233"/>
<circle cx="203" cy="73" r="3" fill="#35B233"/>
</svg>
