<svg width="56" height="56" viewBox="0 0 56 56" fill="none" xmlns="http://www.w3.org/2000/svg">
<circle opacity="0.5" cx="28" cy="28" r="28" fill="#D5D0F6"/>
<circle cx="28" cy="28" r="22" fill="#D5D0F6"/>
<circle cx="28" cy="28" r="16" fill="#6050DC"/>
<path d="M32.5837 37.167H23.417C23.0412 37.167 22.7295 36.8553 22.7295 36.4795C22.7295 36.1037 23.0412 35.792 23.417 35.792H32.5837C32.9595 35.792 33.2712 36.1037 33.2712 36.4795C33.2712 36.8553 32.9595 37.167 32.5837 37.167Z" fill="white"/>
<path d="M35.6539 22.0601L31.9872 24.6818C31.5014 25.0301 30.8047 24.8193 30.5939 24.2601L28.8614 19.6401C28.568 18.8426 27.4405 18.8426 27.1472 19.6401L25.4055 24.251C25.1947 24.8193 24.5072 25.0301 24.0214 24.6726L20.3547 22.051C19.6214 21.5376 18.6497 22.2618 18.9522 23.1143L22.7655 33.7934C22.8939 34.1601 23.2422 34.3984 23.6272 34.3984H32.363C32.748 34.3984 33.0964 34.1509 33.2247 33.7934L37.038 23.1143C37.3497 22.2618 36.378 21.5376 35.6539 22.0601ZM30.2914 30.521H25.708C25.3322 30.521 25.0205 30.2093 25.0205 29.8335C25.0205 29.4576 25.3322 29.146 25.708 29.146H30.2914C30.6672 29.146 30.9789 29.4576 30.9789 29.8335C30.9789 30.2093 30.6672 30.521 30.2914 30.521Z" fill="white"/>
</svg>
