<svg width="56" height="56" viewBox="0 0 56 56" fill="none" xmlns="http://www.w3.org/2000/svg">
<circle opacity="0.5" cx="28" cy="28" r="28" fill="#D5D0F6"/>
<circle cx="28" cy="28" r="22" fill="#D5D0F6"/>
<circle cx="28" cy="28" r="16" fill="#6050DC"/>
<path d="M35.4085 28.833V29.6663H34.6835C34.0668 29.6663 33.5668 30.1663 33.5668 30.7913V31.0413C33.5668 31.6663 33.0668 32.1663 32.4418 32.1663C31.8251 32.1663 31.3251 31.6663 31.3251 31.0413V30.7913C31.3251 30.1663 30.8168 29.6663 30.2001 29.6663C29.5835 29.6663 29.0835 30.1663 29.0835 30.7913V31.0413C29.0835 31.6663 28.5751 32.1663 27.9585 32.1663C27.3418 32.1663 26.8335 31.6663 26.8335 31.0413V30.7913C26.8335 30.1663 26.3335 29.6663 25.7168 29.6663C25.1001 29.6663 24.5918 30.1663 24.5918 30.7913V31.0413C24.5918 31.6663 24.0918 32.1663 23.4751 32.1663C22.8501 32.1663 22.3501 31.6663 22.3501 31.0413V30.7747C22.3501 30.158 21.8585 29.658 21.2501 29.6497H20.5918V28.833C20.5918 27.683 21.4585 26.708 22.6335 26.4247C22.8668 26.3663 23.1085 26.333 23.3668 26.333H32.6335C32.8918 26.333 33.1335 26.3663 33.3668 26.4247C34.5418 26.708 35.4085 27.683 35.4085 28.833Z" fill="white"/>
<path d="M33.3666 23.9753V25.1503C33.125 25.1003 32.8833 25.0837 32.6333 25.0837H23.3666C23.1166 25.0837 22.875 25.1087 22.6333 25.1587V23.9753C22.6333 22.9753 23.5333 22.167 24.65 22.167H31.35C32.4666 22.167 33.3666 22.9753 33.3666 23.9753Z" fill="white"/>
<path d="M25.2915 20.9587V22.1753H24.6498C24.4332 22.1753 24.2332 22.2003 24.0415 22.2503V20.9587C24.0415 20.667 24.3248 20.417 24.6665 20.417C25.0082 20.417 25.2915 20.667 25.2915 20.9587Z" fill="white"/>
<path d="M31.9585 20.7754V22.2504C31.7668 22.1921 31.5668 22.1671 31.3502 22.1671H30.7085V20.7754C30.7085 20.4337 30.9918 20.1504 31.3335 20.1504C31.6752 20.1504 31.9585 20.4337 31.9585 20.7754Z" fill="white"/>
<path d="M28.625 20.3503V22.167H27.375V20.3503C27.375 19.9753 27.6583 19.667 28 19.667C28.3417 19.667 28.625 19.9753 28.625 20.3503Z" fill="white"/>
<path d="M36.3332 35.7087C36.3332 36.0504 36.0498 36.3337 35.7082 36.3337H20.2915C19.9498 36.3337 19.6665 36.0504 19.6665 35.7087C19.6665 35.3671 19.9498 35.0837 20.2915 35.0837H20.5915V30.9004H21.0998V30.9587C21.0998 32.0754 21.8332 33.1087 22.9248 33.3504C23.7748 33.5504 24.5832 33.2754 25.1332 32.7337C25.4498 32.4171 25.9665 32.4087 26.2832 32.7254C26.7165 33.1504 27.3082 33.4171 27.9582 33.4171C28.6082 33.4171 29.1998 33.1587 29.6332 32.7254C29.9498 32.4171 30.4582 32.4171 30.7832 32.7337C31.3248 33.2754 32.1332 33.5504 32.9915 33.3504C34.0832 33.1087 34.8165 32.0754 34.8165 30.9587V30.9171H35.4082V35.0837H35.7082C36.0498 35.0837 36.3332 35.3671 36.3332 35.7087Z" fill="white"/>
</svg>
