<svg width="56" height="56" viewBox="0 0 56 56" fill="none" xmlns="http://www.w3.org/2000/svg">
<circle opacity="0.5" cx="28" cy="28" r="28" fill="#D5D0F6"/>
<circle cx="28" cy="28" r="22" fill="#D5D0F6"/>
<circle cx="28" cy="28" r="16" fill="#6050DC"/>
<path d="M35 21L29.6 26.4M35 21H30M35 21V26M21 30C21 31.3261 21.5268 32.5979 22.4645 33.5355C23.4021 34.4732 24.6739 35 26 35C27.3261 35 28.5979 34.4732 29.5355 33.5355C30.4732 32.5979 31 31.3261 31 30C31 28.6739 30.4732 27.4021 29.5355 26.4645C28.5979 25.5268 27.3261 25 26 25C24.6739 25 23.4021 25.5268 22.4645 26.4645C21.5268 27.4021 21 28.6739 21 30Z" stroke="white" stroke-width="2" stroke-linecap="round" stroke-linejoin="round"/>
</svg>
