<svg width="56" height="56" viewBox="0 0 56 56" fill="none" xmlns="http://www.w3.org/2000/svg">
<circle opacity="0.5" cx="28" cy="28" r="28" fill="#D5D0F6"/>
<circle cx="28" cy="28" r="22" fill="#D5D0F6"/>
<circle cx="28" cy="28" r="16" fill="#6050DC"/>
<path d="M32.5835 34.4163C32.5835 34.288 32.4827 34.1872 32.3543 34.1872L28.0002 34.1872C27.6243 34.1872 27.3127 33.8755 27.3127 33.4997C27.3127 33.1238 27.6243 32.8122 28.0002 32.8122L32.3543 32.8122C32.4827 32.8122 32.5835 32.7113 32.5835 32.583L32.5835 30.7497C32.5835 30.6213 32.4827 30.5205 32.3543 30.5205L30.2002 30.5205C29.8243 30.5205 29.5127 30.2088 29.5127 29.833C29.5127 29.4572 29.8243 29.1455 30.2002 29.1455L32.3543 29.1455C32.4827 29.1455 32.5835 29.0447 32.5835 28.9163L32.5835 27.1197C32.5835 26.9913 32.4827 26.8905 32.3543 26.8905L27.991 26.8538C27.6152 26.8538 27.3127 26.5422 27.3127 26.1663C27.3127 26.1663 27.3127 26.1663 27.3127 26.1572C27.3127 25.7813 27.6243 25.4788 28.0093 25.4788L32.3543 25.5155C32.4827 25.5155 32.5835 25.4147 32.5835 25.2863L32.5835 23.4163C32.5835 23.288 32.4827 23.1872 32.3543 23.1872L29.1002 23.1872C28.7243 23.1872 28.4127 22.8755 28.4127 22.4997C28.4127 22.1238 28.7243 21.8122 29.1002 21.8122L32.3543 21.8122C32.4827 21.8122 32.5835 21.7113 32.5835 21.583C32.5835 20.0613 31.3552 18.833 29.8335 18.833L26.1668 18.833C24.6452 18.833 23.4168 20.0613 23.4168 21.583L23.4168 34.4163C23.4168 35.938 24.6452 37.1663 26.1668 37.1663L29.8335 37.1663C31.3552 37.1663 32.5835 35.938 32.5835 34.4163Z" fill="white"/>
</svg>
