<svg width="56" height="56" viewBox="0 0 56 56" fill="none" xmlns="http://www.w3.org/2000/svg">
<circle opacity="0.5" cx="28" cy="28" r="28" fill="#D5D0F6"/>
<circle cx="28" cy="28" r="22" fill="#D5D0F6"/>
<circle cx="28" cy="28" r="16" fill="#6050DC"/>
<path d="M35.902 24.7462C34.9395 20.5112 31.2453 18.6045 28.0003 18.6045C28.0003 18.6045 28.0003 18.6045 27.9912 18.6045C24.7553 18.6045 21.052 20.502 20.0895 24.737C19.017 29.467 21.9137 33.4728 24.5353 35.9937C25.507 36.9287 26.7537 37.3962 28.0003 37.3962C29.247 37.3962 30.4937 36.9287 31.4562 35.9937C34.0778 33.4728 36.9745 29.4762 35.902 24.7462ZM28.0003 29.3387C26.4053 29.3387 25.1128 28.0462 25.1128 26.4512C25.1128 24.8562 26.4053 23.5637 28.0003 23.5637C29.5953 23.5637 30.8878 24.8562 30.8878 26.4512C30.8878 28.0462 29.5953 29.3387 28.0003 29.3387Z" fill="white"/>
</svg>
