<svg width="56" height="56" viewBox="0 0 56 56" fill="none" xmlns="http://www.w3.org/2000/svg">
<circle opacity="0.5" cx="28" cy="28" r="28" fill="#D5D0F6"/>
<circle cx="28" cy="28" r="22" fill="#D5D0F6"/>
<circle cx="28" cy="28" r="16" fill="#6050DC"/>
<path d="M32.0707 19.8428C30.4115 19.8428 28.9265 20.6494 28.0007 21.8869C27.0748 20.6494 25.5898 19.8428 23.9307 19.8428C21.1165 19.8428 18.834 22.1344 18.834 24.9669C18.834 26.0578 19.0082 27.0661 19.3107 28.0011C20.759 32.5844 25.2232 35.3253 27.4323 36.0769C27.744 36.1869 28.2573 36.1869 28.569 36.0769C30.7782 35.3253 35.2423 32.5844 36.6906 28.0011C36.9932 27.0661 37.1673 26.0578 37.1673 24.9669C37.1673 22.1344 34.8848 19.8428 32.0707 19.8428Z" fill="white"/>
</svg>
