<svg width="56" height="56" viewBox="0 0 56 56" fill="none" xmlns="http://www.w3.org/2000/svg">
<circle opacity="0.5" cx="28" cy="28" r="28" fill="#D5D0F6"/>
<circle cx="28" cy="28" r="22" fill="#D5D0F6"/>
<circle cx="28" cy="28" r="16" fill="#6050DC"/>
<path d="M32.5834 20.208H23.4167C20.6667 20.208 18.8334 21.583 18.8334 24.7913V31.208C18.8334 34.4163 20.6667 35.7913 23.4167 35.7913H32.5834C35.3334 35.7913 37.1667 34.4163 37.1667 31.208V24.7913C37.1667 21.583 35.3334 20.208 32.5834 20.208ZM33.0142 25.7905L30.145 28.0822C29.54 28.568 28.77 28.8063 28 28.8063C27.23 28.8063 26.4509 28.568 25.855 28.0822L22.9859 25.7905C22.6925 25.5522 22.6467 25.1122 22.8759 24.8188C23.1142 24.5255 23.545 24.4705 23.8384 24.7088L26.7075 27.0005C27.4042 27.5597 28.5867 27.5597 29.2834 27.0005L32.1525 24.7088C32.4459 24.4705 32.8859 24.5163 33.115 24.8188C33.3534 25.1122 33.3075 25.5522 33.0142 25.7905Z" fill="white"/>
</svg>
