<svg width="56" height="56" viewBox="0 0 56 56" fill="none" xmlns="http://www.w3.org/2000/svg">
<circle opacity="0.5" cx="28" cy="28" r="28" fill="#D5D0F6"/>
<circle cx="28" cy="28" r="22" fill="#D5D0F6"/>
<circle cx="28" cy="28" r="16" fill="#6050DC"/>
<path d="M34.8749 24.3333C36.1406 24.3333 37.1666 23.3073 37.1666 22.0417C37.1666 20.776 36.1406 19.75 34.8749 19.75C33.6093 19.75 32.5833 20.776 32.5833 22.0417C32.5833 23.3073 33.6093 24.3333 34.8749 24.3333Z" fill="white"/>
<path d="M34.8749 24.3333C36.1406 24.3333 37.1666 23.3073 37.1666 22.0417C37.1666 20.776 36.1406 19.75 34.8749 19.75C33.6093 19.75 32.5833 20.776 32.5833 22.0417C32.5833 23.3073 33.6093 24.3333 34.8749 24.3333Z" fill="white"/>
<path d="M35.9932 25.5338C35.3516 25.7355 34.6458 25.7722 33.9124 25.5888C32.6841 25.268 31.6849 24.2872 31.3458 23.0588C31.1808 22.463 31.1716 21.8763 31.2724 21.3447C31.3916 20.758 30.9791 20.208 30.3924 20.208H23.4166C20.6666 20.208 18.8333 21.583 18.8333 24.7913V31.208C18.8333 34.4163 20.6666 35.7913 23.4166 35.7913H32.5833C35.3333 35.7913 37.1666 34.4163 37.1666 31.208V26.4047C37.1666 25.7997 36.5799 25.3413 35.9932 25.5338ZM31.2266 27.2205L30.1449 28.0822C29.5399 28.568 28.7699 28.8063 27.9999 28.8063C27.2299 28.8063 26.4508 28.568 25.8549 28.0822L22.9858 25.7905C22.6924 25.5522 22.6466 25.1122 22.8758 24.8188C23.1141 24.5255 23.5449 24.4705 23.8383 24.7088L26.7074 27.0005C27.4041 27.5597 28.5866 27.5597 29.2833 27.0005L30.3649 26.1388C30.6583 25.9005 31.0983 25.9463 31.3274 26.2488C31.5658 26.5422 31.5199 26.9822 31.2266 27.2205Z" fill="white"/>
</svg>
