<svg width="56" height="56" viewBox="0 0 56 56" fill="none" xmlns="http://www.w3.org/2000/svg">
<circle opacity="0.5" cx="28" cy="28" r="28" fill="#D5D0F6"/>
<circle cx="28" cy="28" r="22" fill="#D5D0F6"/>
<circle cx="28" cy="28" r="16" fill="#6050DC"/>
<path d="M34.7281 30.2841L33.8115 28.7625C33.619 28.4233 33.4448 27.7816 33.4448 27.4058V25.0866C33.4448 22.9325 32.1798 21.0716 30.3556 20.2008C29.879 19.3575 28.999 18.835 27.9906 18.835C26.9915 18.835 26.0931 19.3758 25.6165 20.2283C23.829 21.1175 22.5915 22.96 22.5915 25.0866V27.4058C22.5915 27.7816 22.4173 28.4233 22.2248 28.7533L21.299 30.2841C20.9323 30.8983 20.8498 31.5766 21.079 32.2C21.299 32.8141 21.8215 33.2908 22.4998 33.52C24.2781 34.125 26.1481 34.4183 28.0181 34.4183C29.8881 34.4183 31.7581 34.125 33.5365 33.5291C34.1781 33.3183 34.6731 32.8325 34.9115 32.2C35.1498 31.5675 35.0856 30.8708 34.7281 30.2841Z" fill="white"/>
<path d="M30.5932 35.3441C30.2082 36.4075 29.1907 37.1683 27.9991 37.1683C27.2749 37.1683 26.5599 36.875 26.0557 36.3525C25.7624 36.0775 25.5424 35.7108 25.4141 35.335C25.5332 35.3533 25.6524 35.3625 25.7807 35.3808C25.9916 35.4083 26.2116 35.4358 26.4316 35.4541C26.9541 35.5 27.4857 35.5275 28.0174 35.5275C28.5399 35.5275 29.0624 35.5 29.5757 35.4541C29.7682 35.4358 29.9607 35.4266 30.1441 35.3991C30.2907 35.3808 30.4374 35.3625 30.5932 35.3441Z" fill="white"/>
</svg>
