<svg width="56" height="56" viewBox="0 0 56 56" fill="none" xmlns="http://www.w3.org/2000/svg">
<circle opacity="0.5" cx="28" cy="28" r="28" fill="#D5D0F6"/>
<circle cx="28" cy="28" r="22" fill="#D5D0F6"/>
<circle cx="28" cy="28" r="16" fill="#6050DC"/>
<path d="M33.625 24.668V26.418C33.2583 26.368 32.8417 26.343 32.375 26.3346V24.668C32.375 22.043 31.6333 20.293 28 20.293C24.3667 20.293 23.625 22.043 23.625 24.668V26.3346C23.1583 26.343 22.7417 26.368 22.375 26.418V24.668C22.375 22.2513 22.9583 19.043 28 19.043C33.0417 19.043 33.625 22.2513 33.625 24.668Z" fill="white"/>
<path d="M33.6253 26.4154C33.2587 26.3654 32.842 26.3404 32.3753 26.332H23.6253C23.1587 26.3404 22.742 26.3654 22.3753 26.4154C20.2503 26.6737 19.667 27.7154 19.667 30.4987V32.1654C19.667 35.4987 20.5003 36.332 23.8337 36.332H32.167C35.5003 36.332 36.3337 35.4987 36.3337 32.1654V30.4987C36.3337 27.7154 35.7503 26.6737 33.6253 26.4154ZM25.2587 31.9237C25.1003 32.0737 24.8837 32.1654 24.667 32.1654C24.5587 32.1654 24.4503 32.1404 24.3503 32.0987C24.242 32.057 24.1587 31.9987 24.0753 31.9237C23.9253 31.7654 23.8337 31.5487 23.8337 31.332C23.8337 31.2237 23.8587 31.1154 23.9003 31.0154C23.942 30.9154 24.0003 30.8237 24.0753 30.7404C24.1587 30.6654 24.242 30.607 24.3503 30.5654C24.6587 30.432 25.0253 30.507 25.2587 30.7404C25.3337 30.8237 25.392 30.9154 25.4337 31.0154C25.4753 31.1154 25.5003 31.2237 25.5003 31.332C25.5003 31.5487 25.4087 31.7654 25.2587 31.9237ZM28.767 31.6487C28.7253 31.7487 28.667 31.8404 28.592 31.9237C28.4337 32.0737 28.217 32.1654 28.0003 32.1654C27.7753 32.1654 27.567 32.0737 27.4087 31.9237C27.3337 31.8404 27.2753 31.7487 27.2337 31.6487C27.192 31.5487 27.167 31.4404 27.167 31.332C27.167 31.107 27.2587 30.8987 27.4087 30.7404C27.717 30.432 28.2753 30.432 28.592 30.7404C28.742 30.8987 28.8337 31.107 28.8337 31.332C28.8337 31.4404 28.8087 31.5487 28.767 31.6487ZM31.9253 31.9237C31.767 32.0737 31.5503 32.1654 31.3337 32.1654C31.117 32.1654 30.9003 32.0737 30.742 31.9237C30.592 31.7654 30.5003 31.557 30.5003 31.332C30.5003 31.107 30.592 30.8987 30.742 30.7404C31.0587 30.432 31.617 30.432 31.9253 30.7404C31.9587 30.782 31.992 30.8237 32.0253 30.8737C32.0587 30.9154 32.0837 30.9654 32.1003 31.0154C32.1253 31.0654 32.142 31.1154 32.1503 31.1654C32.1587 31.2237 32.167 31.282 32.167 31.332C32.167 31.5487 32.0753 31.7654 31.9253 31.9237Z" fill="white"/>
</svg>
