<svg width="56" height="56" viewBox="0 0 56 56" fill="none" xmlns="http://www.w3.org/2000/svg">
<circle opacity="0.5" cx="28" cy="28" r="28" fill="#D5D0F6"/>
<circle cx="28" cy="28" r="22" fill="#D5D0F6"/>
<circle cx="28" cy="28" r="16" fill="#6050DC"/>
<g clip-path="url(#clip0_173_5718)">
<path d="M24.5625 23.875C24.5625 22.3582 25.7957 21.125 27.3125 21.125H28.6875C30.2043 21.125 31.4375 22.3582 31.4375 23.875V24.0297C31.4375 24.9664 30.9605 25.8387 30.1742 26.3414L28.3609 27.5059C27.8285 27.8482 27.3906 28.3187 27.0873 28.8742C26.784 29.4298 26.625 30.0526 26.625 30.6855V30.75C26.625 31.5105 27.2395 32.125 28 32.125C28.7605 32.125 29.375 31.5105 29.375 30.75V30.6898C29.375 30.3375 29.5555 30.0109 29.8477 29.8219L31.6609 28.6574C33.2336 27.6434 34.1875 25.9031 34.1875 24.0297V23.875C34.1875 20.8371 31.7254 18.375 28.6875 18.375H27.3125C24.2746 18.375 21.8125 20.8371 21.8125 23.875C21.8125 24.6355 22.427 25.25 23.1875 25.25C23.948 25.25 24.5625 24.6355 24.5625 23.875ZM28 37.625C28.4558 37.625 28.893 37.4439 29.2153 37.1216C29.5377 36.7993 29.7188 36.3621 29.7188 35.9062C29.7188 35.4504 29.5377 35.0132 29.2153 34.6909C28.893 34.3686 28.4558 34.1875 28 34.1875C27.5442 34.1875 27.107 34.3686 26.7847 34.6909C26.4623 35.0132 26.2812 35.4504 26.2812 35.9062C26.2812 36.3621 26.4623 36.7993 26.7847 37.1216C27.107 37.4439 27.5442 37.625 28 37.625Z" fill="white"/>
</g>
<defs>
<clipPath id="clip0_173_5718">
<rect width="13.75" height="22" fill="white" transform="translate(21.125 17)"/>
</clipPath>
</defs>
</svg>
