<svg width="56" height="56" viewBox="0 0 56 56" fill="none" xmlns="http://www.w3.org/2000/svg">
<circle opacity="0.5" cx="28" cy="28" r="28" fill="#D5D0F6"/>
<circle cx="28" cy="28" r="22" fill="#D5D0F6"/>
<circle cx="28" cy="28" r="16" fill="#6050DC"/>
<path d="M32.4272 31.3368C33.0414 30.9335 33.848 31.3735 33.848 32.1068V33.2893C33.848 34.4535 32.9405 35.7001 31.8497 36.0668L28.9255 37.0385C28.4122 37.2126 27.578 37.2126 27.0739 37.0385L24.1497 36.0668C23.0497 35.7001 22.1514 34.4535 22.1514 33.2893V32.0976C22.1514 31.3735 22.958 30.9335 23.563 31.3276L25.4514 32.556C26.1755 33.0418 27.0922 33.2801 28.0089 33.2801C28.9255 33.2801 29.8422 33.0418 30.5664 32.556L32.4272 31.3368Z" fill="white"/>
<path d="M35.3149 22.9217L29.8241 19.3192C28.8341 18.6683 27.2024 18.6683 26.2124 19.3192L20.6941 22.9217C18.9249 24.0675 18.9249 26.6617 20.6941 27.8167L22.1607 28.77L26.2124 31.41C27.2024 32.0608 28.8341 32.0608 29.8241 31.41L33.8482 28.77L35.1041 27.945V30.75C35.1041 31.1258 35.4157 31.4375 35.7916 31.4375C36.1674 31.4375 36.4791 31.1258 36.4791 30.75V26.24C36.8457 25.0575 36.4699 23.6825 35.3149 22.9217Z" fill="white"/>
</svg>
