<svg width="56" height="56" viewBox="0 0 56 56" fill="none" xmlns="http://www.w3.org/2000/svg">
<circle opacity="0.5" cx="28" cy="28" r="28" fill="#D5D0F6"/>
<circle cx="28" cy="28" r="22" fill="#D5D0F6"/>
<circle cx="28" cy="28" r="16" fill="#6050DC"/>
<path d="M19.3643 34.4224L19.3459 34.4408C19.0984 33.8999 18.9426 33.2858 18.8784 32.6074C18.9426 33.2766 19.1168 33.8816 19.3643 34.4224Z" fill="white"/>
<path d="M25.2466 26.5157C26.4515 26.5157 27.4283 25.5389 27.4283 24.334C27.4283 23.1291 26.4515 22.1523 25.2466 22.1523C24.0417 22.1523 23.0649 23.1291 23.0649 24.334C23.0649 25.5389 24.0417 26.5157 25.2466 26.5157Z" fill="white"/>
<path d="M31.8449 18.8379H24.1632C20.8266 18.8379 18.8374 20.8271 18.8374 24.1637V31.8454C18.8374 32.8446 19.0116 33.7154 19.3507 34.4487C20.1391 36.1904 21.8257 37.1712 24.1632 37.1712H31.8449C35.1816 37.1712 37.1707 35.1821 37.1707 31.8454V29.7462V24.1637C37.1707 20.8271 35.1816 18.8379 31.8449 18.8379ZM35.6766 28.4629C34.9616 27.8487 33.8066 27.8487 33.0916 28.4629L29.2782 31.7354C28.5632 32.3496 27.4082 32.3496 26.6932 31.7354L26.3816 31.4787C25.7307 30.9104 24.6949 30.8554 23.9616 31.3504L20.5332 33.6512C20.3316 33.1379 20.2124 32.5421 20.2124 31.8454V24.1637C20.2124 21.5787 21.5782 20.2129 24.1632 20.2129H31.8449C34.4299 20.2129 35.7957 21.5787 35.7957 24.1637V28.5637L35.6766 28.4629Z" fill="white"/>
</svg>
