<svg width="146" height="146" viewBox="0 0 146 146" fill="none" xmlns="http://www.w3.org/2000/svg">
<circle cx="73" cy="73" r="72.2151" fill="#EEEEEE" stroke="#333333" stroke-width="1.56989" stroke-dasharray="5.49 5.49"/>
<path d="M67.0767 69.0804C69.2899 69.0804 71.0842 67.2862 71.0842 65.0729C71.0842 62.8596 69.2899 61.0654 67.0767 61.0654C64.8634 61.0654 63.0692 62.8596 63.0692 65.0729C63.0692 67.2862 64.8634 69.0804 67.0767 69.0804Z" stroke="#4D4D4D" stroke-width="3" stroke-linecap="round" stroke-linejoin="round"/>
<path d="M75.0917 53.0498H67.0767C57.058 53.0498 53.0505 57.0573 53.0505 67.0761V79.0986C53.0505 89.1173 57.058 93.1248 67.0767 93.1248H79.0992C89.118 93.1248 93.1255 89.1173 93.1255 79.0986V69.0798" stroke="#4D4D4D" stroke-width="3" stroke-linecap="round" stroke-linejoin="round"/>
<path d="M85.1104 65.0723V53.0498L89.1179 57.0573" stroke="#4D4D4D" stroke-width="3" stroke-linecap="round" stroke-linejoin="round"/>
<path d="M85.1104 53.0498L81.1029 57.0573" stroke="#4D4D4D" stroke-width="3" stroke-linecap="round" stroke-linejoin="round"/>
<path d="M54.3929 87.0121L64.2714 80.3797C65.8543 79.3177 68.1386 79.438 69.5613 80.6602L70.2225 81.2413C71.7854 82.5838 74.3102 82.5838 75.8731 81.2413L84.2087 74.0879C85.7716 72.7454 88.2963 72.7454 89.8593 74.0879L93.1254 76.8932" stroke="#4D4D4D" stroke-width="3" stroke-linecap="round" stroke-linejoin="round"/>
</svg>