<svg width="56" height="56" viewBox="0 0 56 56" fill="none" xmlns="http://www.w3.org/2000/svg">
<circle opacity="0.5" cx="28" cy="28" r="28" fill="#D5D0F6"/>
<circle cx="28" cy="28" r="22" fill="#D5D0F6"/>
<circle cx="28" cy="28" r="16" fill="#6050DC"/>
<path d="M28 19.667C25.7 19.667 23.8334 21.5337 23.8334 23.8337C23.8334 26.1337 25.7 28.0003 28 28.0003C30.3 28.0003 32.1667 26.1337 32.1667 23.8337C32.1667 21.5337 30.3 19.667 28 19.667ZM29.8084 23.4253L27.5584 25.6753C27.475 25.7587 27.3 25.842 27.1834 25.867L26.325 25.9837C26.0084 26.0253 25.7917 25.8087 25.8417 25.5003L25.9667 24.642C25.9834 24.5253 26.0667 24.3503 26.1584 24.267L28.4084 22.017C28.7917 21.6337 29.25 21.4503 29.8167 22.017C30.375 22.592 30.1917 23.042 29.8084 23.4253Z" fill="white"/>
<path d="M28.0001 29.667C23.825 29.667 20.425 32.467 20.425 35.917C20.425 36.1503 20.6084 36.3337 20.8417 36.3337H35.1584C35.3917 36.3337 35.5751 36.1503 35.5751 35.917C35.5751 32.467 32.1751 29.667 28.0001 29.667Z" fill="white"/>
</svg>
