<svg width="56" height="56" viewBox="0 0 56 56" fill="none" xmlns="http://www.w3.org/2000/svg">
<circle opacity="0.5" cx="28" cy="28" r="28" fill="#D5D0F6"/>
<circle cx="28" cy="28" r="22" fill="#D5D0F6"/>
<circle cx="28" cy="28" r="16" fill="#6050DC"/>
<path d="M31.9436 18.5801H24.0565C20.6306 18.5801 18.5883 20.6224 18.5883 24.0483V31.9354C18.5883 34.5801 19.8024 36.3966 21.9389 37.0836C22.5601 37.3001 23.2753 37.4036 24.0565 37.4036H31.9436C32.7248 37.4036 33.4401 37.3001 34.0612 37.0836C36.1977 36.3966 37.4118 34.5801 37.4118 31.9354V24.0483C37.4118 20.6224 35.3695 18.5801 31.9436 18.5801ZM36.0001 31.9354C36.0001 33.9495 35.2095 35.2201 33.6189 35.7471C32.7059 33.9495 30.5412 32.6695 28.0001 32.6695C25.4589 32.6695 23.3036 33.9401 22.3812 35.7471H22.3718C20.8001 35.2389 20.0001 33.9589 20.0001 31.9448V24.0483C20.0001 21.3942 21.4024 19.9918 24.0565 19.9918H31.9436C34.5977 19.9918 36.0001 21.3942 36.0001 24.0483V31.9354Z" fill="white"/>
<path d="M28 24.2266C26.1365 24.2266 24.6306 25.7324 24.6306 27.596C24.6306 29.4595 26.1365 30.9748 28 30.9748C29.8636 30.9748 31.3694 29.4595 31.3694 27.596C31.3694 25.7324 29.8636 24.2266 28 24.2266Z" fill="white"/>
</svg>