<svg width="56" height="56" viewBox="0 0 56 56" fill="none" xmlns="http://www.w3.org/2000/svg">
<circle opacity="0.5" cx="28" cy="28" r="28" fill="#D5D0F6"/>
<circle cx="28" cy="28" r="22" fill="#D5D0F6"/>
<circle cx="28" cy="28" r="16" fill="#6050DC"/>
<path d="M27.9723 18.833C22.9123 18.833 18.8057 22.9397 18.8057 27.9997C18.8057 33.0597 22.9123 37.1663 27.9723 37.1663C33.0323 37.1663 37.139 33.0597 37.139 27.9997C37.139 22.9397 33.0415 18.833 27.9723 18.833ZM30.7223 30.0438L28.064 31.5747C27.734 31.7672 27.3673 31.8588 27.0098 31.8588C26.6432 31.8588 26.2857 31.7672 25.9557 31.5747C25.2957 31.1897 24.9015 30.5113 24.9015 29.7413V26.6705C24.9015 25.9097 25.2957 25.2222 25.9557 24.8372C26.6157 24.4522 27.404 24.4522 28.0732 24.8372L30.7315 26.368C31.3915 26.753 31.7857 27.4313 31.7857 28.2013C31.7857 28.9713 31.3915 29.6588 30.7223 30.0438Z" fill="white"/>
</svg>
