<svg width="56" height="56" viewBox="0 0 56 56" fill="none" xmlns="http://www.w3.org/2000/svg">
<circle opacity="0.5" cx="28" cy="28" r="28" fill="#D5D0F6"/>
<circle cx="28" cy="28" r="22" fill="#D5D0F6"/>
<circle cx="28" cy="28" r="16" fill="#6050DC"/>
<path d="M36.3344 23.3979C35.5552 22.5362 34.2536 22.1054 32.3652 22.1054H32.1452V22.0687C32.1452 20.5287 32.1452 18.6221 28.6986 18.6221H27.3052C23.8586 18.6221 23.8586 20.5379 23.8586 22.0687V22.1146H23.6386C21.7411 22.1146 20.4486 22.5454 19.6694 23.4071C18.7619 24.4154 18.7894 25.7721 18.8811 26.6979L18.8902 26.7621L18.9612 27.5076C18.9743 27.6449 19.0483 27.7689 19.1637 27.8444C19.3835 27.9883 19.7514 28.2254 19.9719 28.3479C20.1002 28.4304 20.2377 28.5037 20.3752 28.5771C21.9427 29.4387 23.6661 30.0162 25.4169 30.3004C25.4994 31.1621 25.8752 32.1704 27.8827 32.1704C29.8902 32.1704 30.2844 31.1712 30.3486 30.2821C32.2186 29.9796 34.0244 29.3287 35.6561 28.3754C35.7111 28.3479 35.7477 28.3204 35.7936 28.2929C36.1572 28.0874 36.5345 27.8341 36.8784 27.586C36.982 27.5113 37.0483 27.3957 37.0624 27.2687L37.0769 27.1379L37.1227 26.7071C37.1319 26.6521 37.1319 26.6062 37.1411 26.5421C37.2144 25.6162 37.1961 24.3512 36.3344 23.3979ZM29.0011 29.6771C29.0011 30.6487 29.0011 30.7954 27.8736 30.7954C26.7461 30.7954 26.7461 30.6212 26.7461 29.6862V28.5312H29.0011V29.6771ZM25.1694 22.1054V22.0687C25.1694 20.5104 25.1694 19.9329 27.3052 19.9329H28.6986C30.8344 19.9329 30.8344 20.5196 30.8344 22.0687V22.1146H25.1694V22.1054Z" fill="white"/>
<path d="M36.1335 29.5919C36.4577 29.4377 36.831 29.6946 36.7985 30.0521L36.4695 33.6764C36.277 35.5098 35.5254 37.3798 31.492 37.3798H24.507C20.4737 37.3798 19.722 35.5098 19.5295 33.6856L19.2172 30.2501C19.1851 29.8968 19.5499 29.6401 19.8731 29.7864C20.9176 30.2589 22.8455 31.0973 24.0364 31.4092C24.187 31.4487 24.3088 31.5565 24.3748 31.6975C24.9312 32.8874 26.1379 33.5206 27.8804 33.5206C29.6056 33.5206 30.8276 32.8631 31.3858 31.6702C31.4519 31.5291 31.5738 31.4213 31.7245 31.3816C32.9891 31.0489 35.0412 30.1117 36.1335 29.5919Z" fill="white"/>
</svg>
