<svg width="56" height="56" viewBox="0 0 56 56" fill="none" xmlns="http://www.w3.org/2000/svg">
<circle opacity="0.5" cx="28" cy="28" r="28" fill="#D5D0F6"/>
<circle cx="28" cy="28" r="22" fill="#D5D0F6"/>
<circle cx="28" cy="28" r="16" fill="#6050DC"/>
<path d="M29.1918 24.4341L30.4018 26.8541C30.5668 27.1841 31.0068 27.5141 31.3735 27.5691L33.5643 27.9358C34.9668 28.1741 35.2968 29.1825 34.2885 30.1908L32.5835 31.905C32.2993 32.1891 32.1343 32.7483 32.226 33.1516L32.7118 35.2691C33.0968 36.9375 32.2076 37.5883 30.7318 36.7175L28.6785 35.4983C28.3026 35.2783 27.6976 35.2783 27.3218 35.4983L25.2593 36.7083C23.7835 37.5791 22.8943 36.9283 23.2793 35.26L23.7651 33.1425C23.8568 32.7483 23.6918 32.1891 23.4076 31.8958L21.7118 30.2C20.7035 29.1916 21.0335 28.1741 22.436 27.945L24.6268 27.5783C24.9935 27.5141 25.4335 27.1933 25.5985 26.8633L26.8085 24.4433C27.4593 23.1233 28.541 23.1233 29.1918 24.4341Z" fill="white"/>
<path d="M22.5 25.9372C22.1242 25.9372 21.8125 25.6255 21.8125 25.2497V18.833C21.8125 18.4572 22.1242 18.1455 22.5 18.1455C22.8758 18.1455 23.1875 18.4572 23.1875 18.833V25.2497C23.1875 25.6255 22.8758 25.9372 22.5 25.9372Z" fill="white"/>
<path d="M33.5 25.9372C33.1242 25.9372 32.8125 25.6255 32.8125 25.2497V18.833C32.8125 18.4572 33.1242 18.1455 33.5 18.1455C33.8758 18.1455 34.1875 18.4572 34.1875 18.833V25.2497C34.1875 25.6255 33.8758 25.9372 33.5 25.9372Z" fill="white"/>
<path d="M28 21.3538C27.6242 21.3538 27.3125 21.0422 27.3125 20.6663V18.833C27.3125 18.4572 27.6242 18.1455 28 18.1455C28.3758 18.1455 28.6875 18.4572 28.6875 18.833V20.6663C28.6875 21.0422 28.3758 21.3538 28 21.3538Z" fill="white"/>
</svg>
